<?xml version="1.0" standalone="no"?>
<!DOCTYPE svg PUBLIC "-//W3C//DTD SVG 20010904//EN"
 "http://www.w3.org/TR/2001/REC-SVG-20010904/DTD/svg10.dtd">
<svg version="1.0" xmlns="http://www.w3.org/2000/svg"
 width="512.000000pt" height="512.000000pt" viewBox="0 0 512.000000 512.000000"
 preserveAspectRatio="xMidYMid meet">
<metadata>
Created by potrace 1.14, written by Peter Selinger 2001-2017
</metadata>
<g transform="translate(0.000000,512.000000) scale(0.100000,-0.100000)"
fill="#000000" stroke="none">
<path d="M2210 5095 c-140 -21 -161 -25 -265 -51 -101 -25 -282 -81 -300 -93
-5 -4 -28 -13 -50 -20 -68 -23 -286 -135 -391 -200 -227 -143 -298 -211 -279
-271 7 -23 389 -411 422 -428 30 -17 59 -15 91 5 15 10 29 20 32 23 3 4 50 35
105 69 189 118 383 197 595 241 163 34 179 39 197 66 14 23 17 61 18 297 1
282 -3 320 -32 348 -27 26 -50 28 -143 14z"/>
<path d="M2793 5100 c-12 -5 -30 -21 -39 -36 -16 -23 -18 -57 -18 -300 -1
-151 2 -287 7 -304 10 -38 41 -58 108 -70 108 -17 126 -21 226 -50 187 -54
348 -129 511 -239 136 -91 147 -95 192 -64 43 29 408 401 415 423 13 40 -13
83 -83 136 -222 167 -467 298 -722 386 -96 33 -292 84 -360 93 -24 4 -47 8
-50 10 -3 2 -34 6 -70 10 -36 3 -72 8 -80 10 -8 2 -25 0 -37 -5z"/>
<path d="M559 4150 c-51 -55 -176 -237 -236 -345 -64 -115 -127 -253 -171
-375 -32 -90 -78 -246 -86 -293 -3 -15 -7 -35 -10 -45 -3 -9 -8 -35 -11 -57
-4 -22 -8 -47 -10 -55 -2 -12 -12 -85 -20 -155 -3 -23 28 -67 54 -78 39 -17
577 -15 608 2 27 14 44 43 50 85 17 126 72 327 118 434 43 98 122 244 173 319
76 112 82 123 82 156 0 22 -37 64 -204 232 -191 191 -232 225 -274 225 -9 0
-37 -22 -63 -50z"/>
<path d="M4445 4188 c-30 -18 -400 -390 -414 -417 -17 -32 -7 -75 27 -119 73
-94 188 -302 226 -408 50 -141 86 -271 102 -369 3 -16 7 -41 9 -54 7 -39 33
-70 67 -78 18 -5 158 -8 310 -7 300 1 299 1 323 57 8 19 9 47 3 90 -5 34 -10
76 -13 92 -20 152 -95 411 -170 590 -84 200 -286 530 -372 608 -26 22 -73 30
-98 15z"/>
<path d="M2530 3442 c-48 -3 -149 -22 -169 -31 -157 -74 -208 -110 -278 -196
-87 -106 -136 -241 -137 -375 -1 -99 5 -137 29 -211 38 -115 102 -204 213
-298 30 -26 178 -98 217 -107 62 -13 208 -16 273 -4 79 13 208 73 272 127 147
121 231 306 225 494 -5 166 -61 295 -180 414 -82 82 -155 128 -250 158 -58 19
-164 33 -215 29z"/>
<path d="M1133 2410 c-12 -5 -30 -21 -39 -35 -56 -86 110 -524 276 -729 162
-200 315 -325 528 -431 84 -42 238 -100 287 -109 14 -3 62 -13 107 -22 118
-26 417 -25 543 0 547 110 983 494 1153 1016 24 73 52 199 52 235 0 36 -40 77
-78 80 -94 7 -497 -122 -702 -225 -282 -142 -522 -388 -657 -677 l-45 -96 -22
54 c-121 298 -377 570 -675 719 -161 81 -400 164 -597 209 -102 23 -100 23
-131 11z"/>
<path d="M71 2374 c-35 -15 -50 -35 -53 -70 -2 -26 8 -118 18 -169 2 -11 7
-36 10 -55 16 -104 80 -324 131 -455 290 -735 905 -1298 1661 -1519 140 -42
268 -69 382 -82 30 -3 77 -10 104 -14 50 -8 471 -5 516 4 14 2 48 7 75 11 887
120 1665 723 2008 1555 67 161 133 386 153 515 2 17 10 68 17 115 16 99 11
126 -26 154 -25 18 -43 19 -323 20 l-297 0 -23 -27 c-13 -15 -26 -44 -29 -65
-52 -319 -176 -610 -361 -853 -79 -102 -200 -230 -280 -294 -27 -22 -55 -46
-62 -53 -7 -6 -58 -41 -111 -77 -160 -105 -343 -189 -526 -240 -58 -17 -72
-20 -125 -30 -14 -3 -36 -7 -50 -10 -23 -5 -42 -7 -145 -20 -44 -6 -296 -6
-335 -1 -14 2 -54 6 -90 10 -214 25 -482 119 -698 245 -157 91 -362 266 -467
396 -22 28 -46 57 -54 65 -38 39 -147 220 -200 331 -81 168 -134 340 -166 531
-3 21 -16 50 -29 64 l-22 27 -289 1 c-189 1 -297 -3 -314 -10z"/>
</g>
</svg>
